<svg xmlns="http://www.w3.org/2000/svg" width="32" height="32" viewBox="0 0 32 32"><path fill="#f5c86c" d="M2 2h8v8H2z"/><path fill="#f56c6c" d="M12 2h8v8h-8z"/><path fill="#f46ac6" d="M22 2h8v8h-8z"/><path fill="#c3f167" d="M2 12h8v8H2z"/><path fill="#f3f3f3" d="M12 12h8v8h-8z"/><path fill="#c76cf5" d="M22 12h8v8h-8z"/><path fill="#69e369" d="M2 22h8v8H2z"/><path fill="#6bc6f4" d="M12 22h8v8h-8z"/><path fill="#6b6bf5" d="M22 22h8v8h-8z"/><path d="M9 3v6H3V3h6m1-1H2v8h8V2zm9 1v6h-6V3h6m1-1h-8v8h8V2zm9 1v6h-6V3h6m1-1h-8v8h8V2zM9 13v6H3v-6h6m1-1H2v8h8v-8zm9 1v6h-6v-6h6m1-1h-8v8h8v-8zm9 1v6h-6v-6h6m1-1h-8v8h8v-8zM9 23v6H3v-6h6m1-1H2v8h8v-8zm9 1v6h-6v-6h6m1-1h-8v8h8v-8zm9 1v6h-6v-6h6m1-1h-8v8h8v-8z" opacity=".25"/></svg>